<?xml version="1.0" standalone="no"?>
<!DOCTYPE svg PUBLIC "-//W3C//DTD SVG 20010904//EN"
 "http://www.w3.org/TR/2001/REC-SVG-20010904/DTD/svg10.dtd">
<svg version="1.0" xmlns="http://www.w3.org/2000/svg"
 width="300.000000pt" height="300.000000pt" viewBox="0 0 300.000000 300.000000"
 preserveAspectRatio="xMidYMid meet">
<metadata>
Created by potrace 1.11, written by Peter Selinger 2001-2013
</metadata>
<g transform="translate(0.000000,300.000000) scale(0.100000,-0.100000)"
fill="#000000" stroke="none">
<path d="M589 2784 c-99 -30 -192 -121 -219 -212 -16 -52 -52 -2061 -39 -2122
20 -91 83 -168 179 -217 l55 -28 935 0 935 0 55 28 c96 49 159 126 179 217 13
61 -23 2070 -39 2122 -27 92 -122 183 -223 213 -74 22 -1747 21 -1818 -1z
m1698 -178 c103 -48 122 -113 123 -406 0 -91 3 -243 7 -337 l6 -173 68 0 67 0
6 -72 c3 -40 8 -241 12 -445 6 -369 6 -373 -16 -418 -12 -25 -38 -59 -58 -75
-69 -57 -95 -60 -544 -60 l-408 0 0 -50 0 -50 -65 0 -65 0 0 50 0 50 -393 0
c-433 0 -460 3 -529 60 -20 16 -46 50 -58 75 -22 45 -22 49 -16 418 4 204 9
405 12 445 l6 72 67 0 68 0 6 173 c4 94 7 246 7 337 1 293 20 358 123 406 l52
24 735 0 735 0 52 -24z m-1809 -2032 c17 -17 48 -40 69 -50 36 -18 75 -19 953
-19 878 0 917 1 953 19 48 23 96 71 113 111 7 16 13 24 14 17 1 -38 -57 -105
-120 -138 -32 -18 -68 -19 -472 -22 l-438 -3 0 -94 0 -95 -65 0 -65 0 0 95 0
94 -422 3 c-390 3 -426 4 -458 22 -63 33 -121 100 -120 138 1 7 7 -1 14 -17 7
-17 27 -44 44 -61z"/>
<path d="M1445 2587 c-46 -18 -70 -38 -94 -77 -17 -29 -21 -51 -21 -131 l0
-96 -47 -18 c-121 -46 -232 -149 -289 -269 -41 -87 -58 -186 -30 -186 12 0 16
-10 16 -45 0 -100 70 -238 159 -316 56 -48 167 -103 239 -118 167 -35 353 12
476 120 90 79 156 211 156 311 0 42 2 48 21 48 20 0 21 4 16 57 -4 38 -20 85
-46 139 -60 120 -166 215 -293 263 -28 10 -28 11 -28 107 0 113 -15 154 -70
190 -44 29 -122 39 -165 21z m-115 -407 c0 -11 -7 -20 -15 -20 -13 0 -14 4 -5
20 6 11 13 20 15 20 3 0 5 -9 5 -20z m370 -18 c0 -7 -4 -10 -10 -7 -5 3 -10
16 -10 28 0 18 2 19 10 7 5 -8 10 -21 10 -28z"/>
<path d="M805 1654 c4 -31 13 -76 20 -100 l13 -43 -93 -88 c-110 -105 -138
-153 -139 -240 -1 -55 -4 -63 -20 -63 -17 0 -18 -7 -14 -75 6 -95 34 -141 109
-179 l53 -26 766 0 766 0 53 26 c75 38 103 84 109 179 l5 75 -298 0 c-290 0
-301 -1 -369 -24 -146 -50 -296 -55 -455 -15 l-74 19 -89 -86 c-108 -104 -155
-128 -253 -128 -114 -1 -214 60 -260 157 -8 17 -10 23 -3 13 64 -97 148 -146
248 -146 108 0 151 21 260 125 l95 92 60 -21 c50 -17 85 -20 215 -20 144 0
161 2 235 27 178 62 325 183 402 333 41 79 73 181 73 237 l0 27 -84 0 -84 0
-6 -34 c-13 -68 -77 -179 -140 -241 -223 -220 -589 -220 -812 0 -63 62 -127
173 -140 241 l-6 34 -75 0 -75 0 7 -56z m145 -634 c-8 -5 -40 -10 -70 -10 -30
0 -62 5 -70 10 -10 7 11 10 70 10 59 0 80 -3 70 -10z"/>
</g>
</svg>
