<svg width="718" height="518" viewBox="0 0 718 518" fill="none" xmlns="http://www.w3.org/2000/svg">
<g filter="url(#filter0_d)">
<path d="M359 106.688C345.788 106.907 332.675 109.137 320.058 113.309C325.894 124.211 329.001 136.521 329.083 149.062C329.083 158.801 327.278 168.444 323.77 177.441C320.262 186.438 315.12 194.613 308.638 201.499C302.156 208.385 294.46 213.847 285.991 217.574C277.522 221.301 268.445 223.219 259.278 223.219C247.472 223.132 235.884 219.831 225.622 213.631C217.524 243.463 218.468 275.245 228.319 304.476C238.17 333.706 256.428 358.903 280.508 376.498C304.588 394.092 333.269 403.192 362.487 402.508C391.706 401.824 419.981 391.391 443.309 372.687C466.636 353.984 483.832 327.957 492.461 298.294C501.091 268.631 500.716 236.835 491.39 207.411C482.064 177.987 464.26 152.426 440.499 134.348C416.738 116.271 388.226 106.594 359 106.688ZM713.662 235.666C646.063 95.5508 512.236 0.75 359 0.75C205.764 0.75 71.8997 95.617 4.33791 235.68C1.48637 241.672 0.000671387 248.292 0.000671387 255.007C0.000671387 261.721 1.48637 268.341 4.33791 274.334C71.9371 414.449 205.764 509.25 359 509.25C512.236 509.25 646.1 414.383 713.662 274.32C716.514 268.328 717.999 261.708 717.999 254.993C717.999 248.279 716.514 241.659 713.662 235.666ZM359 445.688C236.03 445.688 123.294 372.855 62.4136 255C123.294 137.145 236.018 64.3125 359 64.3125C481.982 64.3125 594.706 137.145 655.586 255C594.718 372.855 481.982 445.688 359 445.688Z" fill="#A4A4A4"/>
</g>
<defs>
<filter id="filter0_d" x="-3.99933" y="0.75" width="725.999" height="516.5" filterUnits="userSpaceOnUse" color-interpolation-filters="sRGB">
<feFlood flood-opacity="0" result="BackgroundImageFix"/>
<feColorMatrix in="SourceAlpha" type="matrix" values="0 0 0 0 0 0 0 0 0 0 0 0 0 0 0 0 0 0 127 0"/>
<feOffset dy="4"/>
<feGaussianBlur stdDeviation="2"/>
<feColorMatrix type="matrix" values="0 0 0 0 0 0 0 0 0 0 0 0 0 0 0 0 0 0 0.25 0"/>
<feBlend mode="normal" in2="BackgroundImageFix" result="effect1_dropShadow"/>
<feBlend mode="normal" in="SourceGraphic" in2="effect1_dropShadow" result="shape"/>
</filter>
</defs>
</svg>
