<svg width="146" height="155" viewBox="0 0 146 155" fill="none" xmlns="http://www.w3.org/2000/svg">
<g filter="url(#filter0_d)">
<g clip-path="url(#clip0)">
<path d="M111.619 66.2229L48.8409 3.01711C44.8474 -1.00562 38.3726 -1.00562 34.3812 3.01711C30.3895 7.03626 30.3895 13.5549 34.3812 17.5737L89.9298 73.5011L34.3827 129.427C30.391 133.447 30.391 139.965 34.3827 143.985C38.3747 148.005 44.8489 148.005 48.8424 143.985L111.62 80.7777C113.616 78.7674 114.613 76.135 114.613 73.5014C114.613 70.8666 113.614 68.2324 111.619 66.2229Z" fill="white"/>
</g>
</g>
<defs>
<filter id="filter0_d" x="-4" y="0" width="154" height="155" filterUnits="userSpaceOnUse" color-interpolation-filters="sRGB">
<feFlood flood-opacity="0" result="BackgroundImageFix"/>
<feColorMatrix in="SourceAlpha" type="matrix" values="0 0 0 0 0 0 0 0 0 0 0 0 0 0 0 0 0 0 127 0"/>
<feOffset dy="4"/>
<feGaussianBlur stdDeviation="2"/>
<feColorMatrix type="matrix" values="0 0 0 0 0 0 0 0 0 0 0 0 0 0 0 0 0 0 0.25 0"/>
<feBlend mode="normal" in2="BackgroundImageFix" result="effect1_dropShadow"/>
<feBlend mode="normal" in="SourceGraphic" in2="effect1_dropShadow" result="shape"/>
</filter>
<clipPath id="clip0">
<rect width="146" height="147" transform="matrix(-1 0 0 1 146 0)" fill="white"/>
</clipPath>
</defs>
</svg>
